<?xml version="1.0" encoding="utf-8"?>
<!-- Generator: Adobe Illustrator 24.3.0, SVG Export Plug-In . SVG Version: 6.00 Build 0)  -->
<svg version="1.1" id="layer" xmlns="http://www.w3.org/2000/svg" xmlns:xlink="http://www.w3.org/1999/xlink" x="0px" y="0px"
	 viewBox="0 0 245 245" style="enable-background:new 0 0 245 245;" xml:space="preserve">
<style type="text/css">
	.st0{fill:#FFFFFF;}
	.st1{fill:#5FED83;}
</style>
<path id="path_1_" class="st0" d="M46.1,0h152.8c14.8,1.9,26.5,8.3,35.1,19.4c7.3,9.5,11,20.3,10.9,32.6c-0.1,45.5-0.1,91.1,0,136.9
	c0,6.9-0.5,12.3-1.4,16.4c-1.5,6.3-4,12-7.5,17.2c-1.3,1.9-2.9,3.6-4.3,5.4c-1.1,1.4-2.3,2.6-3.7,3.7c-1.9,1.5-3.6,3.1-5.6,4.5
	c-5.4,3.6-11.2,6.1-17.5,7.5c-4,0.9-9.4,1.4-16.1,1.3c-46.2-0.1-91.6-0.1-136.1,0c-13.1,0-24.4-3.8-33.7-11.4
	C8.1,224.6,1.9,213,0.1,198.7V45.8c0.9-6.7,2.4-12.1,4.3-16C13,12.5,26.9,2.6,46.1,0 M187.1,159h-25.5c-0.4,0-0.8-0.2-1-0.5
	L148,140.8c-2.1-2.9-6.1-2.8-8.4-0.1c-3.1,3.5-5.8,6.9-3.1,10.8c3.9,5.3,7.8,10.8,11.8,16.6c3,4.3,7.1,6.5,12.3,6.6
	c9,0.1,18.4,0.1,28.3,0c7.9-0.1,14.4-5.9,14.4-14c0-24.5-0.1-50.2,0-76.9c0-5.3-3.2-10.2-8-12.4c-2.2-1-5.2-1.5-8.9-1.4
	c-8.2,0.1-16.5,0.1-24.9,0c-5-0.1-9.3,1.7-12.3,5.6c-21.4,27.3-42.9,54.8-64.6,82.6c-0.4,0.6-1.1,0.9-1.9,0.9H57.3
	c-0.4,0-0.6-0.2-0.6-0.6V86c0-0.4,0.2-0.6,0.6-0.6h25.8c0.2,0,0.5,0.1,0.6,0.3c4.6,6,9.2,12.3,14,19.1c1.9,2.7,5.5,3.5,7.9,1.1
	c1.4-1.4,2.8-3.1,4.2-5.2c0.9-1.3,0.7-2.9,0.6-4.4c0-0.5-0.2-0.9-0.5-1.2c-4.5-6.1-8.8-12-12.9-17.7c-3.3-4.6-7.2-7.4-12.7-7.3
	c-8.4,0-17.6,0-27.6,0c-6.2,0-11.1,2.7-13.9,8.2c-1,1.9-1.4,4.9-1.4,9.1c0.2,22.4,0.2,46,0,70.8c0,3.1,0.3,5.6,1,7.5
	c1.3,3.5,3.7,6,7,7.6c2.2,1.1,5.7,1.6,10.7,1.5c8.4-0.1,16-0.1,22.8-0.1c5.5,0.1,9.7-1.8,12.6-5.5c21.3-27.2,42.9-54.9,65-83.2
	c0.3-0.4,0.9-0.7,1.4-0.7h25.5c0.2,0,0.4,0.2,0.4,0.4v72.5C187.9,158.7,187.7,159,187.1,159"/>
<path id="path" class="st1" d="M187.8,158.2V85.7c0-0.2-0.2-0.4-0.4-0.4h-25.5c-0.6,0-1.1,0.3-1.4,0.7c-22.1,28.3-43.8,56-65,83.2
	c-2.9,3.7-7.1,5.5-12.6,5.5c-6.8-0.1-14.4,0-22.8,0.1c-4.9,0.1-8.5-0.4-10.7-1.5c-3.4-1.6-5.7-4.2-7-7.6c-0.7-1.9-1.1-4.4-1-7.5
	c0.2-24.8,0.2-48.4,0-70.8c0-4.2,0.4-7.2,1.4-9.1c2.8-5.5,7.7-8.2,13.9-8.2c10,0.1,19.2,0.1,27.6,0c5.5,0,9.4,2.7,12.7,7.3
	c4.1,5.7,8.4,11.6,12.9,17.7c0.3,0.4,0.4,0.8,0.5,1.2c0.1,1.5,0.3,3.1-0.6,4.4c-1.4,2-2.8,3.8-4.2,5.2c-2.4,2.4-6,1.5-7.9-1.1
	c-4.7-6.7-9.4-13.1-14-19.1c-0.2-0.2-0.4-0.3-0.6-0.3H57.3c-0.4,0-0.6,0.2-0.6,0.6v72.5c0,0.4,0.2,0.6,0.6,0.6h25.4
	c0.7,0,1.4-0.3,1.9-0.9c21.7-27.8,43.3-55.3,64.6-82.6c3-3.9,7.3-5.6,12.3-5.6c8.4,0.1,16.7,0.1,24.9,0c3.8,0,6.8,0.4,8.9,1.4
	c4.8,2.2,8,7.1,8,12.4c0,26.7,0,52.4,0,76.9c0,8.1-6.6,13.9-14.4,14c-9.9,0.1-19.3,0.1-28.3,0c-5.2-0.1-9.3-2.3-12.3-6.6
	c-4-5.7-7.9-11.2-11.8-16.6c-2.8-3.9,0-7.2,3.1-10.8c2.3-2.7,6.3-2.8,8.4,0.1l12.6,17.7c0.2,0.3,0.6,0.5,1,0.5H187
	C187.6,159,187.8,158.7,187.8,158.2"/>
</svg>
